<svg xmlns="http://www.w3.org/2000/svg" width="480" height="650" viewBox="0 0 480 650" role="img" aria-label="Shivam Kumar developer lanyard"><defs><linearGradient id="strap" x2="1"><stop stop-color="#f34e9b"/><stop offset="1" stop-color="#9d65ee"/></linearGradient><linearGradient id="card" x2="0" y2="1"><stop stop-color="#20233e"/><stop offset="1" stop-color="#080b1b"/></linearGradient><clipPath id="av"><circle cx="240" cy="285" r="72"/></clipPath><filter id="gl"><feGaussianBlur stdDeviation="5" result="x"/><feMerge><feMergeNode in="x"/><feMergeNode in="SourceGraphic"/></feMerge></filter><style><![CDATA[.all{transform-origin:240px 0;animation:drop 1.2s ease-out both,swing 3s 1.2s ease-out forwards,soft 4s 4.2s ease-in-out infinite}.shine{animation:shine 3s 2s infinite}.txt{font-family:Arial,sans-serif}@keyframes drop{from{transform:translateY(-650px)}to{transform:translateY(0)}}@keyframes swing{0%{transform:rotate(16deg)}30%{transform:rotate(-12deg)}55%{transform:rotate(7deg)}75%{transform:rotate(-3deg)}100%{transform:rotate(0)}}@keyframes soft{50%{transform:rotate(3deg)}}@keyframes shine{from{transform:translateX(-600px)}to{transform:translateX(700px)}}]]></style></defs><g class="all"><path d="M190 0v125c0 28 100 28 100 0V0" fill="none" stroke="url(#strap)" stroke-width="25"/><text x="240" y="68" text-anchor="middle" class="txt" font-size="12" fill="#fff" transform="rotate(90 240 68)">CODE · LEARN · BUILD</text><rect x="224" y="120" width="32" height="36" rx="8" fill="#bfc8d5"/><circle cx="240" cy="174" r="19" fill="none" stroke="#dce8f7" stroke-width="8"/><path d="M240 193v45" stroke="#cbd7e6" stroke-width="7"/><rect x="90" y="225" width="300" height="370" rx="26" fill="url(#card)" stroke="#f376b4" stroke-width="2"/><circle cx="240" cy="285" r="82" fill="none" stroke="#ee70b5" stroke-width="4" filter="url(#gl)"/><image href="gitprofile_img.png" x="164" y="209" width="152" height="152" preserveAspectRatio="xMidYMid slice" clip-path="url(#av)"/><text x="240" y="398" text-anchor="middle" class="txt" font-size="27" font-weight="700" fill="#fff">Shivam Kumar</text><text x="240" y="425" text-anchor="middle" class="txt" font-size="15" fill="#f68bbb">FULL STACK DEVELOPER</text><text x="240" y="455" text-anchor="middle" class="txt" font-size="16" fill="#b8b8d9">@hashiraCoder</text><g fill="#fff" opacity=".8"><rect x="128" y="492" width="4" height="55"/><rect x="136" y="492" width="2" height="55"/><rect x="142" y="492" width="7" height="55"/><rect x="153" y="492" width="3" height="55"/><rect x="160" y="492" width="9" height="55"/><rect x="173" y="492" width="2" height="55"/><rect x="179" y="492" width="5" height="55"/><rect x="188" y="492" width="8" height="55"/><rect x="200" y="492" width="3" height="55"/><rect x="207" y="492" width="6" height="55"/><rect x="217" y="492" width="2" height="55"/><rect x="223" y="492" width="10" height="55"/><rect x="237" y="492" width="3" height="55"/><rect x="244" y="492" width="6" height="55"/><rect x="254" y="492" width="9" height="55"/><rect x="267" y="492" width="3" height="55"/><rect x="274" y="492" width="7" height="55"/><rect x="285" y="492" width="2" height="55"/><rect x="291" y="492" width="9" height="55"/><rect x="304" y="492" width="3" height="55"/><rect x="311" y="492" width="7" height="55"/><rect x="322" y="492" width="3" height="55"/><rect x="329" y="492" width="9" height="55"/></g><g class="shine" opacity=".22" transform="skewX(-20)"><rect x="0" y="225" width="65" height="370" fill="#fff"/></g></g></svg>
